<svg width="31" height="26" viewBox="0 0 31 26" fill="none" xmlns="http://www.w3.org/2000/svg">
<path d="M22.5476 10L16.7109 1.25335C16.5862 1.07675 16.4202 0.933372 16.2274 0.835754C16.0346 0.738135 15.8209 0.689245 15.6048 0.693354C15.1784 0.693354 14.752 0.880021 14.4988 1.26669L8.66204 10H2.27894C1.54602 10 0.94635 10.6 0.94635 11.3334C0.94635 11.4534 0.959676 11.5734 0.999654 11.6934L4.38443 24.0534C4.69093 25.1734 5.71702 26 6.943 26H24.2667C25.4926 26 26.5187 25.1734 26.8386 24.0534L30.2233 11.6934L30.2633 11.3334C30.2633 10.6 29.6636 10 28.9307 10H22.5476ZM11.6071 10L15.6048 4.13335L19.6026 10H11.6071ZM15.6048 20.6667C14.139 20.6667 12.9397 19.4667 12.9397 18C12.9397 16.5334 14.139 15.3334 15.6048 15.3334C17.0707 15.3334 18.27 16.5334 18.27 18C18.27 19.4667 17.0707 20.6667 15.6048 20.6667Z" fill="white"/>
</svg>
